<svg width="280" height="375" viewBox="0 0 280 375" fill="none" xmlns="http://www.w3.org/2000/svg">
<path d="M0 18.2702C0 8.32903 8.05888 0.270142 18 0.270142H99.6742C102.731 0.270142 105.737 1.04849 108.409 2.53182L112.345 4.71637C114.761 6.05687 116.736 8.06754 118.034 10.5058C118.482 11.3466 118.844 12.2299 119.116 13.1427L121.869 22.375C122.244 23.6346 122.48 24.9316 122.573 26.2428L123.399 37.8723C123.465 38.8028 123.603 39.7267 123.812 40.6358L127.441 56.3978C127.651 57.3113 127.932 58.207 128.282 59.0766L136.806 80.2701L143.726 92.7701L152.243 104.77L160.228 113.77L168.308 121.805C168.953 122.448 169.647 123.04 170.382 123.577L188.441 136.77L196.958 142.27L206.008 146.77L218.783 152.27L231.027 156.27L259.772 162.27L266.723 164.16C274.56 166.291 280 173.407 280 181.529V356.27C280 366.211 271.941 374.27 262 374.27H18C8.05887 374.27 0 366.211 0 356.27V18.2702Z" fill="url(#paint0_linear_2_20)"/>
<defs>
<linearGradient id="paint0_linear_2_20" x1="1.06463" y1="303.359" x2="331.061" y2="70.3129" gradientUnits="userSpaceOnUse">
<stop stop-color="#1B1833"/>
<stop offset="1" stop-color="#3D3861"/>
</linearGradient>
</defs>
</svg>
