<svg width="280" height="375" viewBox="0 0 280 375" fill="none" xmlns="http://www.w3.org/2000/svg">
<path d="M280 18.2702C280 8.32903 271.941 0.270142 262 0.270142H180.326C177.269 0.270142 174.263 1.04849 171.591 2.53182L167.655 4.71637C165.239 6.05687 163.264 8.06754 161.966 10.5058C161.518 11.3466 161.156 12.2299 160.884 13.1427L158.131 22.375C157.756 23.6346 157.52 24.9316 157.427 26.2428L156.601 37.8723C156.535 38.8028 156.397 39.7267 156.188 40.6358L152.559 56.3978C152.349 57.3113 152.068 58.207 151.718 59.0766L143.194 80.2701L136.274 92.7701L127.757 104.77L119.772 113.77L111.692 121.805C111.047 122.448 110.353 123.04 109.618 123.577L91.5589 136.77L83.0418 142.27L73.9924 146.77L61.2167 152.27L48.9734 156.27L20.2281 162.27L13.2773 164.16C5.43958 166.291 0 173.407 0 181.529V356.27C0 366.211 8.0589 374.27 18 374.27H262C271.941 374.27 280 366.211 280 356.27V18.2702Z" fill="url(#paint0_linear_2_35)"/>
<defs>
<linearGradient id="paint0_linear_2_35" x1="278.935" y1="303.359" x2="-51.0613" y2="70.3129" gradientUnits="userSpaceOnUse">
<stop stop-color="#1B1833"/>
<stop offset="1" stop-color="#3D3861"/>
</linearGradient>
</defs>
</svg>
